<svg width="15" height="16" viewBox="0 0 15 16" fill="none" xmlns="http://www.w3.org/2000/svg">
<path d="M10.8701 1.60447C11.0429 1.41283 11.2481 1.26081 11.4739 1.1571C11.6997 1.05338 11.9417 1 12.1861 1C12.4306 1 12.6726 1.05338 12.8984 1.1571C13.1242 1.26081 13.3293 1.41283 13.5022 1.60447C13.675 1.79611 13.8121 2.02362 13.9056 2.27401C13.9991 2.5244 14.0473 2.79277 14.0473 3.06379C14.0473 3.33481 13.9991 3.60317 13.9056 3.85356C13.8121 4.10395 13.675 4.33146 13.5022 4.5231L4.61905 14.3735L1 15.468L1.98701 11.4549L10.8701 1.60447Z" stroke="#8D8D8D" stroke-linecap="round" stroke-linejoin="round"/>
</svg>
